<svg xmlns="http://www.w3.org/2000/svg" xmlns:xlink="http://www.w3.org/1999/xlink" viewBox="0 0 50 50" version="1.1" width="500" height="500">
<g id="surface1">
<path style=" " d="M 2 0 C 0.898438 0 0 0.898438 0 2 L 0 48 C 0 49.101563 0.898438 50 2 50 L 48 50 C 49.101563 50 50 49.101563 50 48 L 50 2 C 50 0.898438 49.101563 0 48 0 Z M 13.9375 13.625 C 16.175781 13.625 17.816406 14.191406 19 15.25 C 20.664063 16.6875 21.90625 19.488281 21.90625 24 C 21.90625 28.929688 20.6875 31.621094 19.3125 33.125 C 17.90625 34.691406 15.808594 35.40625 13.34375 35.40625 C 12.351563 35.40625 11.296875 35.347656 10.59375 35.1875 L 10.59375 14.03125 C 11.523438 13.742188 12.691406 13.625 13.9375 13.625 Z M 14.21875 15.625 C 13.835938 15.625 13.382813 15.683594 13.0625 15.78125 L 13.0625 33.3125 C 13.414063 33.375 13.777344 33.375 14 33.375 C 16.71875 33.375 19.34375 31.421875 19.34375 24.0625 C 19.34375 18.621094 17.675781 15.625 14.21875 15.625 Z M 23.625 19.8125 L 26.1875 19.8125 L 27.6875 27.375 C 28.007813 29.039063 28.339844 30.710938 28.53125 32.3125 L 28.65625 32.3125 C 28.882813 30.710938 29.242188 28.910156 29.59375 27.4375 L 31.40625 19.8125 L 33.28125 19.8125 L 35 27.21875 C 35.382813 28.949219 35.710938 30.582031 35.96875 32.3125 L 36.09375 32.3125 C 36.285156 30.679688 36.585938 29.074219 36.9375 27.3125 L 38.40625 19.8125 L 40.875 19.8125 L 36.96875 35.28125 L 34.9375 35.28125 L 33.15625 27.78125 C 32.769531 26.277344 32.539063 24.886719 32.28125 23.125 L 32.21875 23.125 C 31.960938 24.949219 31.695313 26.40625 31.34375 27.875 L 29.46875 35.28125 L 27.40625 35.28125 Z "/>
</g>
</svg>