<svg xmlns="http://www.w3.org/2000/svg" xmlns:xlink="http://www.w3.org/1999/xlink" viewBox="0 0 50 50" version="1.1" width="500" height="500">
<g id="surface1">
<path style=" " d="M 2 0 C 0.898438 0 0 0.898438 0 2 L 0 48 C 0 49.101563 0.898438 50 2 50 L 48 50 C 49.101563 50 50 49.101563 50 48 L 50 2 C 50 0.898438 49.101563 0 48 0 Z M 19.71875 13.625 C 21.703125 13.625 23.410156 14.097656 24.53125 15.1875 C 25.554688 16.210938 26.09375 17.769531 26.09375 19.65625 C 26.09375 21.640625 25.613281 23.003906 24.78125 24.09375 C 23.628906 25.695313 21.609375 26.5 19.6875 26.5 C 19.273438 26.5 18.945313 26.5 18.59375 26.46875 L 18.59375 35.28125 L 16.125 35.28125 L 16.125 14.03125 C 17.117188 13.773438 18.277344 13.625 19.71875 13.625 Z M 19.96875 15.625 C 19.394531 15.625 18.914063 15.714844 18.59375 15.8125 L 18.59375 24.40625 C 18.882813 24.4375 19.179688 24.46875 19.59375 24.46875 C 21.992188 24.46875 23.625 22.882813 23.625 19.84375 C 23.625 17.636719 22.71875 15.625 19.96875 15.625 Z M 31.78125 19.53125 C 32.996094 19.53125 33.890625 19.929688 34.53125 20.34375 L 33.90625 22.1875 C 33.300781 21.773438 32.644531 21.5 31.8125 21.5 C 30.5 21.5 29.84375 22.445313 29.84375 23.46875 C 29.84375 24.492188 30.214844 25.101563 31.75 26.125 C 33.542969 27.277344 34.9375 28.734375 34.9375 30.875 C 34.9375 33.976563 32.84375 35.46875 30.28125 35.46875 C 29.164063 35.46875 27.921875 35.136719 27.25 34.59375 L 27.84375 32.71875 C 28.390625 33.070313 29.351563 33.53125 30.34375 33.53125 C 31.722656 33.53125 32.625 32.65625 32.625 31.28125 C 32.625 30.097656 32.191406 29.273438 30.625 28.25 C 28.609375 26.9375 27.53125 25.605469 27.53125 23.84375 C 27.53125 21.316406 29.378906 19.53125 31.78125 19.53125 Z "/>
</g>
</svg>