<svg xmlns="http://www.w3.org/2000/svg" xmlns:xlink="http://www.w3.org/1999/xlink" viewBox="0 0 50 50" version="1.1" width="500" height="500">
<g id="surface1">
<path style=" " d="M 48 0 L 2 0 C 0.898438 0 0 0.898438 0 2 L 0 48 C 0 49.101563 0.898438 50 2 50 L 48 50 C 49.101563 50 50 49.101563 50 48 L 50 2 C 50 0.898438 49.101563 0 48 0 Z M 26.179688 35.605469 L 17.417969 35.605469 L 17.417969 13.789063 L 20.132813 13.789063 L 20.132813 33.273438 L 26.179688 33.273438 Z M 34.5 22.421875 L 33.859375 22.421875 C 32.449219 22.421875 31.273438 23.691406 31.007813 25.515625 C 30.945313 25.921875 30.914063 26.390625 30.914063 26.902344 L 30.914063 35.605469 L 28.199219 35.605469 L 28.199219 23.992188 C 28.199219 23.144531 28.160156 22.226563 28.121094 21.335938 C 28.101563 20.859375 28.082031 20.402344 28.070313 19.996094 L 28.070313 19.867188 L 30.523438 19.867188 L 30.636719 22.023438 C 31.277344 20.601563 32.554688 19.644531 33.863281 19.644531 C 34.058594 19.644531 34.226563 19.644531 34.398438 19.679688 L 34.5 19.695313 Z "/>
</g>
</svg>