<svg xmlns="http://www.w3.org/2000/svg" xmlns:xlink="http://www.w3.org/1999/xlink" viewBox="0 0 50 50" version="1.1" width="500" height="500">
<g id="surface1">
<path style=" " d="M 25.53125 0.15625 L 20.28125 9.03125 L 10.875 5.15625 L 11.71875 15.3125 L 1.78125 17.65625 L 8.96875 24.5 L 0.90625 32.46875 L 11.5625 34.21875 L 9.9375 46 L 19.8125 40.28125 L 24.96875 49.875 L 30.1875 40.625 L 39.34375 45.375 L 39.125 34.875 L 48.90625 33.6875 L 42.1875 25.3125 L 48.78125 17.40625 L 39.25 15.78125 L 40 5.40625 L 30.375 9.15625 Z M 33.59375 13.09375 L 33.40625 22.6875 L 38.6875 29.3125 L 30.09375 31.6875 L 25.3125 39.09375 L 20.3125 31.6875 L 11.8125 28.8125 L 17.1875 21.90625 L 16.8125 13.1875 L 25 16.5 Z M 20 21 L 20 23 L 30 23 L 30 21 Z M 20 26 L 20 28 L 30 28 L 30 26 Z "/>
</g>
</svg>